<svg xmlns="http://www.w3.org/2000/svg" viewBox="0 0 1600 900" preserveAspectRatio="xMidYMid slice">
  <defs>
    <linearGradient id="bgFade" x1="0" y1="0" x2="1" y2="1">
      <stop offset="0%" stop-color="#f7f6fb" />
      <stop offset="55%" stop-color="#f3effc" />
      <stop offset="100%" stop-color="#ece3fa" />
    </linearGradient>
    <radialGradient id="glowA" cx="50%" cy="50%" r="50%">
      <stop offset="0%" stop-color="#8d75e5" stop-opacity="0.35" />
      <stop offset="100%" stop-color="#8d75e5" stop-opacity="0" />
    </radialGradient>
    <radialGradient id="glowB" cx="50%" cy="50%" r="50%">
      <stop offset="0%" stop-color="#6f4fd6" stop-opacity="0.25" />
      <stop offset="100%" stop-color="#6f4fd6" stop-opacity="0" />
    </radialGradient>
  </defs>

  <rect width="1600" height="900" fill="url(#bgFade)" />

  <circle cx="1300" cy="150" r="360" fill="url(#glowA)" />
  <circle cx="120" cy="800" r="420" fill="url(#glowB)" />

  <g stroke="#6f4fd6" stroke-opacity="0.14" stroke-width="1.5" fill="none">
    <path d="M0 620 L260 480 L520 560 L780 380 L1040 460 L1300 300 L1600 380" />
    <path d="M0 760 L300 700 L560 780 L860 620 L1120 700 L1400 560 L1600 620" />
    <path d="M100 0 L220 260 L120 480 L260 640" />
    <path d="M1500 0 L1360 220 L1460 420 L1340 620" />
  </g>

  <g fill="#6f4fd6" fill-opacity="0.5">
    <circle cx="260" cy="480" r="5" />
    <circle cx="780" cy="380" r="5" />
    <circle cx="1300" cy="300" r="5" />
    <circle cx="560" cy="780" r="4" />
    <circle cx="1120" cy="700" r="4" />
    <circle cx="220" cy="260" r="4" />
    <circle cx="1360" cy="220" r="4" />
    <circle cx="1460" cy="420" r="4" />
  </g>
</svg>
