<?xml version="1.0" encoding="utf-8"?>
<!-- Generator: Adobe Illustrator 16.0.0, SVG Export Plug-In . SVG Version: 6.00 Build 0)  -->
<!DOCTYPE svg PUBLIC "-//W3C//DTD SVG 1.1//EN" "http://www.w3.org/Graphics/SVG/1.1/DTD/svg11.dtd">
<svg version="1.1" id="Layer_1" xmlns="http://www.w3.org/2000/svg" xmlns:xlink="http://www.w3.org/1999/xlink"
	 viewBox="380 650 2240 700" xml:space="preserve">
<g>
	<g>
		<path fill="#17142a" d="M720.13,1200.531l10.39-31.629c13.621,9.465,27.242,14.082,40.863,14.082
			c12.235,0,20.315-7.156,20.315-17.545s-8.08-18.469-24.01-24.24c-30.475-11.082-45.711-27.936-45.711-50.328
			c0-13.16,5.31-24.012,15.698-32.553c10.62-8.543,24.472-12.928,41.556-12.928c15.469,0,31.167,3.693,47.097,10.85l-8.772,30.475
			c-14.083-6.926-26.78-10.389-38.093-10.389c-11.082,0-17.776,6.002-17.776,14.545c0,8.541,6.694,14.543,25.395,21.932
			c30.705,12.236,44.326,28.857,44.326,51.252c0,15.236-5.541,27.473-16.392,36.477s-25.395,13.391-43.633,13.391
			C753.837,1213.922,736.753,1209.535,720.13,1200.531z"/>
		<path fill="#17142a" d="M894.435,1211.15h-40.17v-162.99h40.17v63.719h51.483v-63.719h40.171v162.99h-40.171v-68.336h-51.483
			V1211.15z"/>
		<path fill="#17142a" d="M1063.197,1048.16h34.168l63.719,162.99h-42.248l-11.543-33.244h-54.022l-11.544,33.244h-42.248
			L1063.197,1048.16z M1080.281,1099.643l-16.392,47.789h33.014L1080.281,1099.643z"/>
		<path fill="#17142a" d="M1174.476,1211.15v-162.99h46.173c59.794,0,90.269,30.705,90.269,81.496
			c0,50.789-30.475,81.494-90.269,81.494H1174.476z M1213.953,1078.635v102.041h6.695c33.938,0,50.79-17.082,50.79-51.02
			s-16.853-51.021-50.79-51.021H1213.953z"/>
		<path fill="#17142a" d="M1404.187,1213.922c-24.24,0-43.633-8.08-58.64-24.01c-14.775-16.162-22.163-36.246-22.163-60.256
			s7.388-44.096,22.163-60.025c15.007-16.16,34.399-24.24,58.64-24.24c24.241,0,43.634,8.08,58.409,24.24
			c15.007,15.93,22.395,36.016,22.395,60.025s-7.388,44.094-22.395,60.256C1447.82,1205.842,1428.428,1213.922,1404.187,1213.922z
			 M1404.187,1183.447c12.236,0,22.163-4.848,29.782-14.775c7.618-9.928,11.313-23.086,11.313-39.016s-3.694-28.859-11.313-38.785
			c-7.619-9.928-17.546-15.008-29.782-15.008c-12.235,0-22.163,5.08-29.781,15.008c-7.618,9.926-11.313,22.855-11.313,38.785
			s3.694,29.088,11.313,39.016S1391.951,1183.447,1404.187,1183.447z"/>
		<path fill="#17142a" d="M1580.109,1048.16h34.63l26.088,102.043l26.088-102.043h42.018l-49.636,162.99h-36.938l-24.934-93.73
			l-24.934,93.73h-36.938l-49.636-162.99h42.018l26.088,102.043L1580.109,1048.16z"/>
	</g>
	<g>
		<linearGradient id="SVGID_1_" gradientUnits="userSpaceOnUse" x1="1722.3262" y1="1129.6553" x2="1827.1387" y2="1129.6553">
			<stop  offset="0" style="stop-color:#6710D1"/>
			<stop  offset="1" style="stop-color:#C328FF"/>
		</linearGradient>
		<path fill="url(#SVGID_1_)" d="M1827.139,1211.15h-104.813v-162.99h102.042v30.936h-61.872v32.783h54.484v30.936h-54.484v37.4
			h64.643V1211.15z"/>
		<linearGradient id="SVGID_2_" gradientUnits="userSpaceOnUse" x1="1852.9971" y1="1129.6553" x2="1989.4385" y2="1129.6553">
			<stop  offset="0" style="stop-color:#6710D1"/>
			<stop  offset="1" style="stop-color:#C328FF"/>
		</linearGradient>
		<path fill="url(#SVGID_2_)" d="M1852.997,1211.15v-162.99h46.173c59.794,0,90.269,30.705,90.269,81.496
			c0,50.789-30.475,81.494-90.269,81.494H1852.997z M1892.475,1078.635v102.041h6.695c33.938,0,50.79-17.082,50.79-51.02
			s-16.853-51.021-50.79-51.021H1892.475z"/>
		<linearGradient id="SVGID_3_" gradientUnits="userSpaceOnUse" x1="2001.9053" y1="1129.6563" x2="2148.2744" y2="1129.6563">
			<stop  offset="0" style="stop-color:#6710D1"/>
			<stop  offset="1" style="stop-color:#C328FF"/>
		</linearGradient>
		<path fill="url(#SVGID_3_)" d="M2026.146,1190.834c-16.161-15.467-24.241-35.783-24.241-61.178c0-25.396,8.08-45.713,24.241-61.18
			c16.16-15.469,37.399-23.086,63.487-23.086c18.7,0,36.478,4.154,53.562,12.234l-9.235,30.475
			c-14.775-7.85-29.551-11.773-44.326-11.773c-28.857,0-47.558,20.316-47.558,53.33s18.7,53.328,47.558,53.328
			c6.695,0,12.929-0.922,18.932-2.77v-30.705h-35.784v-30.936h75.493v78.494c-18.239,11.313-37.632,16.854-58.641,16.854
			C2063.546,1213.922,2042.307,1206.303,2026.146,1190.834z"/>
		<linearGradient id="SVGID_4_" gradientUnits="userSpaceOnUse" x1="2175.0576" y1="1129.6553" x2="2279.8701" y2="1129.6553">
			<stop  offset="0" style="stop-color:#6710D1"/>
			<stop  offset="1" style="stop-color:#C328FF"/>
		</linearGradient>
		<path fill="url(#SVGID_4_)" d="M2279.87,1211.15h-104.813v-162.99H2277.1v30.936h-61.871v32.783h54.483v30.936h-54.483v37.4
			h64.642V1211.15z"/>
	</g>
	<g>
		<path fill="#17142a" d="M1057.297,1292.223l-10.625,26.682h-11.944l-10.626-26.682v26.682h-12.72v-54.758h14.349l14.969,37.771
			l14.969-37.771h14.349v54.758h-12.72V1292.223z"/>
		<path fill="#17142a" d="M1103.676,1264.146h11.479l21.407,54.758h-14.194l-3.878-11.17h-18.149l-3.878,11.17h-14.194
			L1103.676,1264.146z M1109.416,1281.441l-5.507,16.057H1115L1109.416,1281.441z"/>
		<path fill="#17142a" d="M1194.265,1318.904h-14.659l-18.537-34.98v34.98h-12.254v-54.758h14.659l18.537,34.979v-34.979h12.254
			V1318.904z"/>
		<path fill="#17142a" d="M1227.924,1264.146h11.479l21.407,54.758h-14.194l-3.878-11.17h-18.149l-3.878,11.17h-14.194
			L1227.924,1264.146z M1233.664,1281.441l-5.507,16.057h11.091L1233.664,1281.441z"/>
		<path fill="#17142a" d="M1277.018,1312.078c-5.429-5.195-8.144-12.021-8.144-20.553s2.714-15.357,8.144-20.555
			c5.429-5.195,12.565-7.756,21.329-7.756c6.283,0,12.255,1.396,17.994,4.111l-3.103,10.238c-4.964-2.637-9.928-3.955-14.892-3.955
			c-9.695,0-15.977,6.824-15.977,17.916c0,11.09,6.282,17.916,15.977,17.916c2.25,0,4.344-0.311,6.36-0.932v-10.314h-12.022v-10.393
			h25.362v26.369c-6.127,3.801-12.643,5.662-19.701,5.662C1289.583,1319.834,1282.447,1317.275,1277.018,1312.078z"/>
		<path fill="#17142a" d="M1370.013,1318.904H1334.8v-54.758h34.282v10.393h-20.786v11.014h18.304v10.393h-18.304v12.564h21.717
			V1318.904z"/>
		<path fill="#17142a" d="M1386.454,1318.904v-54.758h15.512c20.088,0,30.326,10.314,30.326,27.379
			c0,17.063-10.238,27.379-30.326,27.379H1386.454z M1399.717,1274.385v34.281h2.249c11.401,0,17.063-5.74,17.063-17.141
			c0-11.402-5.662-17.141-17.063-17.141H1399.717z"/>
		<path fill="#17142a" d="M1487.59,1318.904h-13.496v-54.758h13.496V1318.904z"/>
		<path fill="#17142a" d="M1531.488,1318.904h-13.495v-44.365h-14.892v-10.393h43.278v10.393h-14.892V1318.904z"/>
		<path fill="#17142a" d="M1585.468,1315.336l3.49-10.625c4.576,3.18,9.152,4.73,13.729,4.73c4.111,0,6.825-2.404,6.825-5.895
			s-2.714-6.205-8.065-8.145c-10.238-3.723-15.357-9.385-15.357-16.908c0-4.42,1.784-8.066,5.274-10.936
			c3.567-2.869,8.221-4.344,13.961-4.344c5.196,0,10.471,1.242,15.822,3.646l-2.947,10.238c-4.731-2.328-8.997-3.49-12.798-3.49
			c-3.723,0-5.972,2.016-5.972,4.885c0,2.871,2.249,4.887,8.531,7.369c10.315,4.111,14.892,9.695,14.892,17.219
			c0,5.119-1.861,9.229-5.507,12.254s-8.531,4.498-14.659,4.498C1596.792,1319.834,1591.053,1318.361,1585.468,1315.336z"/>
		<path fill="#17142a" d="M1673.498,1318.904h-35.212v-54.758h34.281v10.393h-20.786v11.014h18.305v10.393h-18.305v12.564h21.717
			V1318.904z"/>
		<path fill="#17142a" d="M1731.202,1318.904h-14.426l-11.944-21.641h-1.629v21.641h-13.263v-54.758h15.899
			c6.516,0,11.635,1.551,15.357,4.652c3.723,3.104,5.584,7.059,5.584,11.945c0,6.205-3.257,11.4-9.152,14.193L1731.202,1318.904z
			 M1703.203,1274.385v12.875h2.637c4.654,0,7.679-2.637,7.679-6.438s-3.024-6.438-7.679-6.438H1703.203z"/>
		<path fill="#17142a" d="M1791.698,1264.146l-21.407,54.758h-11.479l-21.406-54.758h14.193l12.952,36.764l12.953-36.764H1791.698z"
			/>
		<path fill="#17142a" d="M1817.912,1318.904h-13.496v-54.758h13.496V1318.904z"/>
		<path fill="#17142a" d="M1880.115,1267.016l-3.181,10.16c-4.575-2.404-9.307-3.566-14.115-3.566
			c-9.695,0-15.978,6.824-15.978,17.916c0,11.09,6.282,17.916,15.978,17.916c5.041,0,10.005-1.318,14.892-3.955l3.103,10.16
			c-5.74,2.791-11.712,4.188-17.994,4.188c-8.765,0-15.9-2.559-21.329-7.756c-5.43-5.195-8.145-12.021-8.145-20.553
			s2.715-15.357,8.145-20.555c5.429-5.195,12.564-7.756,21.329-7.756C1868.946,1263.215,1874.686,1264.457,1880.115,1267.016z"/>
		<path fill="#17142a" d="M1931.924,1318.904h-35.212v-54.758h34.281v10.393h-20.786v11.014h18.305v10.393h-18.305v12.564h21.717
			V1318.904z"/>
		<path fill="#17142a" d="M1946.038,1315.336l3.49-10.625c4.576,3.18,9.152,4.73,13.729,4.73c4.11,0,6.825-2.404,6.825-5.895
			s-2.715-6.205-8.066-8.145c-10.238-3.723-15.356-9.385-15.356-16.908c0-4.42,1.783-8.066,5.273-10.936
			c3.568-2.869,8.222-4.344,13.961-4.344c5.196,0,10.471,1.242,15.822,3.646l-2.947,10.238c-4.731-2.328-8.997-3.49-12.797-3.49
			c-3.724,0-5.973,2.016-5.973,4.885c0,2.871,2.249,4.887,8.532,7.369c10.315,4.111,14.892,9.695,14.892,17.219
			c0,5.119-1.862,9.229-5.507,12.254c-3.646,3.025-8.532,4.498-14.659,4.498C1957.362,1319.834,1951.623,1318.361,1946.038,1315.336
			z"/>
	</g>
	<g>
		<g>
			<g>
				<linearGradient id="SVGID_5_" gradientUnits="userSpaceOnUse" x1="1250.4326" y1="840.083" x2="1516" y2="840.083">
					<stop  offset="0" style="stop-color:#6710D1"/>
					<stop  offset="1" style="stop-color:#C328FF"/>
				</linearGradient>
				<polygon fill="url(#SVGID_5_)" points="1250.433,1000 1516,680.166 1516,768.138 1323.164,1000 				"/>
			</g>
			<linearGradient id="SVGID_6_" gradientUnits="userSpaceOnUse" x1="1349.165" y1="897.1167" x2="1628.1719" y2="897.1167">
				<stop  offset="0" style="stop-color:#6710D1"/>
				<stop  offset="1" style="stop-color:#C328FF"/>
			</linearGradient>
			<polygon fill="url(#SVGID_6_)" points="1349.165,1000.233 1521.191,794 1576.986,794 1628.172,843.981 1544.712,843.257
				1421.04,1000.086 			"/>
			<linearGradient id="SVGID_7_" gradientUnits="userSpaceOnUse" x1="1448.1895" y1="940.2485" x2="1661.9863" y2="940.2485">
				<stop  offset="0" style="stop-color:#6710D1"/>
				<stop  offset="1" style="stop-color:#C328FF"/>
			</linearGradient>
			<polygon fill="url(#SVGID_7_)" points="1448.189,1000.497 1546.988,880 1661.986,880 1623.619,926.718 1577.337,926.476
				1521.468,1000.086 			"/>
			<g>
				<linearGradient id="SVGID_8_" gradientUnits="userSpaceOnUse" x1="1591.7412" y1="973.5" x2="1749.5674" y2="973.5">
					<stop  offset="0" style="stop-color:#6710D1"/>
					<stop  offset="1" style="stop-color:#C328FF"/>
				</linearGradient>
				<polygon fill="url(#SVGID_8_)" points="1591.741,1000 1635,947 1700.986,947 1749.567,1000 				"/>
			</g>
		</g>
	</g>
	<g>
		<g>
			<linearGradient id="SVGID_9_" gradientUnits="userSpaceOnUse" x1="411" y1="1137.1387" x2="669" y2="1137.1387">
				<stop  offset="0" style="stop-color:#6710D1"/>
				<stop  offset="1" style="stop-color:#C328FF"/>
			</linearGradient>
			<polygon fill="url(#SVGID_9_)" points="669,1145.139 411,1137.139 669,1129.139 			"/>
		</g>
		<g>
			<linearGradient id="SVGID_10_" gradientUnits="userSpaceOnUse" x1="2331" y1="1137.1387" x2="2589" y2="1137.1387">
				<stop  offset="0" style="stop-color:#6710D1"/>
				<stop  offset="1" style="stop-color:#C328FF"/>
			</linearGradient>
			<polygon fill="url(#SVGID_10_)" points="2331,1129.139 2589,1137.139 2331,1145.139 			"/>
		</g>
	</g>
	<g>
		<g>
			<linearGradient id="SVGID_11_" gradientUnits="userSpaceOnUse" x1="729" y1="1269.5" x2="953" y2="1269.5">
				<stop  offset="0" style="stop-color:#6710D1"/>
				<stop  offset="1" style="stop-color:#C328FF"/>
			</linearGradient>
			<rect x="729" y="1264" fill="url(#SVGID_11_)" width="224" height="11"/>
			<linearGradient id="SVGID_12_" gradientUnits="userSpaceOnUse" x1="2046" y1="1269.5" x2="2271" y2="1269.5">
				<stop  offset="0" style="stop-color:#6710D1"/>
				<stop  offset="1" style="stop-color:#C328FF"/>
			</linearGradient>
			<rect x="2046" y="1264" fill="url(#SVGID_12_)" width="225" height="11"/>
		</g>
		<g>
			<linearGradient id="SVGID_13_" gradientUnits="userSpaceOnUse" x1="729" y1="1309.5" x2="953" y2="1309.5">
				<stop  offset="0" style="stop-color:#6710D1"/>
				<stop  offset="1" style="stop-color:#C328FF"/>
			</linearGradient>
			<rect x="729" y="1304" fill="url(#SVGID_13_)" width="224" height="11"/>
			<linearGradient id="SVGID_14_" gradientUnits="userSpaceOnUse" x1="2046" y1="1309.5" x2="2271" y2="1309.5">
				<stop  offset="0" style="stop-color:#6710D1"/>
				<stop  offset="1" style="stop-color:#C328FF"/>
			</linearGradient>
			<rect x="2046" y="1304" fill="url(#SVGID_14_)" width="225" height="11"/>
		</g>
	</g>
</g>
</svg>
